<?xml version="1.0" encoding="utf-8"?>
<!-- Generator: Adobe Illustrator 23.1.1, SVG Export Plug-In . SVG Version: 6.00 Build 0)  -->
<svg version="1.1" id="Layer_1" xmlns="http://www.w3.org/2000/svg" xmlns:xlink="http://www.w3.org/1999/xlink" x="0px" y="0px"
	 viewBox="0 0 1010.6 138.42" style="enable-background:new 0 0 1010.6 138.42;" xml:space="preserve">
<style type="text/css">
	.st0{fill:#FFFFFF;}
</style>
<g>
	<path class="st0" d="M1006.18,6.88c-4.91,2.72-9.92,5.29-14.72,8.19c-32.71,19.78-65.39,39.61-98.06,59.46
		c-30.11,18.29-60.2,36.64-90.32,54.92c-1.7,1.03-3.59,1.75-5.86,1.87c15.22-13.28,31.64-24.89,47.67-36.99
		c16.18-12.2,32.49-24.22,48.75-36.33c16.2-12.06,32.39-24.14,48.59-36.2c-0.11-0.36-0.22-0.72-0.32-1.09
		c-302.66,0-605.31,0-908.35,0c0.12-1.73,0.19-2.78,0.28-4.24c2.17-0.14,4.13-0.36,6.08-0.39c33.16-0.46,66.32-0.95,99.48-1.33
		c72.49-0.82,144.98-1.57,217.46-2.37c54.66-0.61,109.31-1.26,163.97-1.9c54.99-0.64,109.98-1.26,164.97-1.93
		c56.49-0.68,112.98-1.41,169.46-2.1c27.83-0.34,55.66-0.65,83.48-1.01c1.81-0.02,3.62-0.37,5.42-0.56c20.67,0,41.33,0,62,0
		C1006.18,5.55,1006.18,6.21,1006.18,6.88z"/>
	<path class="st0" d="M6.18,83.28c0.96-3.45,1.92-6.9,2.93-10.54c8.33,1.25,16.41,4.42,25.25-0.07c-1.43-1.13-2.3-2.04-3.35-2.59
		c-1.31-0.69-2.77-1.11-4.18-1.62c-5.63-2.05-10.25-5.21-10.81-11.68c-0.6-6.9,2.74-12.12,8.27-15.95
		c4.76-3.29,10.22-5.08,15.96-5.11c26.32-0.16,52.65-0.1,78.97-0.09c0.48,0,0.95,0.24,2.3,0.59c-1.51,4.48-2.99,8.87-4.65,13.82
		c-5.91,0-11.66,0-17.75,0c-4.44,13.31-8.72,26.12-13.09,39.21c-7.9,0-15.62,0-23.92,0c4.25-13.02,8.34-25.54,12.74-39
		c-12.69,0.18-24.78-2-36.58,1.63c-0.16,0.56-0.33,1.12-0.49,1.68c1.45,1.05,2.86,2.17,4.38,3.12c3.07,1.93,6.57,3.37,9.24,5.74
		c6.27,5.59,6.37,13.24,0.56,19.27c-5.61,5.82-12.95,7.92-20.71,8.69c-8.57,0.85-16.96-0.15-25.07-3.13
		C6.18,85.92,6.18,84.6,6.18,83.28z"/>
	<path class="st0" d="M135.46,35.88c8.18,0,15.78,0,23.87,0c1.95,16.12,3.88,31.98,5.8,47.83c0.25,0.04,0.51,0.07,0.76,0.11
		c5.24-15.86,10.49-31.73,15.75-47.63c1.09-0.25,1.87-0.58,2.65-0.58c11.32-0.03,22.65-0.15,33.97,0.02
		c7.4,0.12,13.06,3.8,14.76,9.03c1.83,5.63-0.52,11.97-6.26,16.58c-1.67,1.34-3.51,2.46-5.77,4.03c4.89,7.05,6.57,14.92,6.19,23.83
		c-7.22,0-14.22,0-21.46,0c-1.46-7.13-1.18-14.72-6.31-20.55c-0.62-0.71-2.01-0.75-3.76-1.34c-2.62,7.58-5.12,14.82-7.65,22.12
		c-15.04,0-29.62,0-44.51,0c-0.36-2.46-0.69-4.67-1.07-7.28c-6.85,0-13.58,0-20.63,0c-1.81,2.26-3.77,4.7-5.86,7.31
		c-7.75,0-15.52,0-24.68,0C106.51,70.9,121.09,53.26,135.46,35.88z M198.81,57.56c2.72-0.35,4.53-0.32,6.16-0.84
		c3.66-1.16,6.35-4.75,5.38-7.2c-1.45-3.67-4.61-2.95-7.57-2.46c-0.27,0.05-0.49,0.4-1.05,0.89
		C200.94,50.56,200.05,53.5,198.81,57.56z M142.14,69.19c-0.24-4.73-0.44-8.78-0.64-12.82c-0.43-0.05-0.86-0.1-1.28-0.15
		c-2.94,4.14-5.87,8.28-9.19,12.97C135.17,69.19,138.26,69.19,142.14,69.19z"/>
	<path class="st0" d="M849.87,38.89c-1.98,5.33-3.56,9.58-5.11,13.77c-6.8,0.05-13.03-6.44-19.45-0.75
		c0.32,3.68,2.95,4.26,5.19,5.22c2.43,1.05,5.11,1.7,7.29,3.11c6.87,4.45,7.62,13.05,1.8,19.24c-6.42,6.84-14.95,9.74-23.83,9.92
		c-24.14,0.49-48.29,0.17-72.44,0.15c-0.47,0-0.95-0.23-2.35-0.59c5.82-17.71,11.6-35.3,17.45-53.09c15.57,0,30.81,0,46.88,0
		c-1.6,4.87-3.06,9.31-4.68,14.25c-7.73,0-15.16,0-22.74,0c-0.68,2.03-1.18,3.52-1.99,5.94c7.01,0,13.35,0,20.54,0
		c-1.66,4.83-2.97,8.67-4.45,12.99c-6.87,0-13.47,0-20.16,0c-0.77,2.17-1.36,3.82-2.24,6.28c16.88-1.1,33.25,1.73,49.31-2.05
		c0.1-0.46,0.2-0.92,0.31-1.38c-0.97-0.72-1.87-1.54-2.91-2.15c-2.58-1.5-5.35-2.7-7.82-4.36c-9.14-6.15-9.34-16.44-0.47-23.1
		c8.49-6.37,18.24-7.74,28.46-6.43C840.67,36.4,844.79,37.72,849.87,38.89z"/>
	<path class="st0" d="M669.02,39.25c0.65-1.13,1.3-2.25,2.05-3.56c12.37,0,24.68-0.28,36.96,0.12c5.94,0.19,11.21,2.88,13.03,9.07
		c1.8,6.13-0.44,11.4-5.26,15.51c-2,1.71-4.22,3.17-5.9,4.41c2.12,6.41,4.16,12.59,6.18,18.69c5.13-15.52,10.39-31.45,15.72-47.58
		c7.94,0,15.5,0,23.97,0c-5.94,18.09-11.72,35.7-17.53,53.39c-15.07,0-29.64,0-44.31,0c-2.15-7.74-0.79-16.71-9.45-22.87
		c-2.78,8.33-5.2,15.59-7.62,22.86c-8.1,0-15.67,0-23.77,0c4.5-14.29,8.85-28.11,13.19-41.94C667.19,44.64,668.1,41.94,669.02,39.25
		z M690.79,46.98c-1.05,3.43-2.06,6.72-3.13,10.23c7.11-0.07,9.14-1.48,11.02-7.1C697.6,46.26,694.59,46.58,690.79,46.98z"/>
	<path class="st0" d="M669.02,39.25c-0.91,2.7-1.82,5.4-2.74,8.1c-1.24,2.3-3.19,3-5.75,2.91c-4.3-0.15-8.6-0.04-13.33-0.04
		c-4.4,13.19-8.67,26-13.02,39.07c-7.76,0-15.34,0-23.86,0c4.2-12.98,8.28-25.59,12.63-39.02c-12.58,0.26-24.71-2.22-36.47,1.8
		c-0.14,0.55-0.28,1.11-0.42,1.66c1.68,1.09,3.34,2.21,5.05,3.27c2.94,1.83,6.21,3.28,8.79,5.51c6.13,5.32,6.32,13.73,0.29,19.19
		c-2.88,2.61-6.4,4.89-10.04,6.22c-11.71,4.3-23.47,3.36-35.79-0.72c0.94-4.88,1.84-9.48,2.79-14.39
		c8.46,1.08,16.54,4.19,25.57,0.09c-1.53-1.32-2.31-2.31-3.34-2.81c-1.78-0.88-3.73-1.39-5.57-2.18
		c-10.44-4.45-12.86-14.92-5.26-23.41c6.08-6.8,14.24-8.88,23.01-8.91c24.31-0.08,48.63-0.04,72.94-0.03c1.31,0,2.61,0.17,4.23,0.28
		C668.84,37.07,668.93,38.16,669.02,39.25z"/>
	<path class="st0" d="M418.06,89.39c-8.23,0-15.85,0-23.98,0c-4.37-6.7-8.87-13.59-14.01-21.46c-2.61,7.61-4.9,14.33-7.29,21.3
		c-7.87,0-15.55,0-23.86,0c5.93-18.05,11.68-35.57,17.51-53.33c7.19,0,14.12,0,21.68,0c4.91,7.11,10.06,14.55,15.87,22.97
		c2.72-8.1,5.15-15.33,7.69-22.92c7.73,0,15.42,0,23.95,0C429.7,53.99,423.94,71.49,418.06,89.39z"/>
	<path class="st0" d="M440.55,35.85c12.25,0,23.98-0.99,35.47,0.22c19.59,2.06,23.79,19.8,15,34.57
		c-7.11,11.94-18.12,18.27-32.08,18.82c-10.8,0.42-21.63,0.15-32.44,0.14c-0.95,0-1.9-0.33-3.44-0.61
		C428.92,71.19,434.68,53.67,440.55,35.85z M452.25,73.79c7.08,1.44,13.13-1.3,17.29-7.61c2.47-3.75,4.07-7.88,1.72-12.09
		c-2.34-4.19-6.75-3.47-10.73-3.23c-0.3,0.02-0.58,0.29-1.16,0.6C457.05,58.75,454.66,66.25,452.25,73.79z"/>
	<path class="st0" d="M312.65,36.84c-10.33,8.44-20.65,16.87-31.13,25.44c4.71,9.02,9.2,17.62,14.05,26.89c-9.31,0-17.85,0-27,0
		c-3.12-5.71-6.43-11.76-10.21-18.68c-2.23,6.7-4.19,12.58-6.25,18.76c-7.7,0-15.27,0-23.95,0c5.91-18,11.7-35.6,17.54-53.37
		c7.98,0,15.56,0,23.96,0c-2.3,7.16-4.45,13.82-6.59,20.49c0.29,0.21,0.59,0.41,0.88,0.62c3.83-3.01,7.68-5.99,11.47-9.05
		c4.01-3.23,7.89-6.62,11.98-9.75c1.51-1.16,3.42-2.42,5.19-2.5c6.47-0.3,12.96-0.12,19.44-0.12
		C312.23,35.99,312.44,36.42,312.65,36.84z"/>
	<path class="st0" d="M504.52,35.83c8.26,0,15.7,0,24.09,0c-2.35,7.19-4.66,13.83-6.67,20.56c-1.17,3.92-2.38,7.96-2.63,12
		c-0.32,5.09,3.08,6.99,7.95,5.08c4.83-1.9,6.89-6.08,8.48-10.48c2.36-6.53,4.41-13.16,6.63-19.74c0.84-2.47,1.79-4.91,2.73-7.46
		c7.78,0,15.22,0,23,0c-0.09,1.18,0.03,2.16-0.26,3c-3.25,9.37-6.44,18.76-9.88,28.06c-4.8,12.97-14.05,20.88-28.05,22.04
		c-7.38,0.61-15.06,0.65-22.29-0.7c-10.27-1.92-15.49-10.39-12.95-20.49C497.35,57,501.14,46.59,504.52,35.83z"/>
	<path class="st0" d="M345.95,89.35c-8.16,0-15.58,0-24.01,0c5.96-18.12,11.74-35.69,17.59-53.48c7.89,0,15.45,0,23.99,0
		C357.58,53.94,351.8,71.53,345.95,89.35z"/>
</g>
</svg>
